<?xml version="1.0" encoding="utf-8"?>
<!-- Generator: Adobe Illustrator 21.1.0, SVG Export Plug-In . SVG Version: 6.00 Build 0)  -->
<svg version="1.1" id="logo" xmlns="http://www.w3.org/2000/svg" xmlns:xlink="http://www.w3.org/1999/xlink" x="0px" y="0px"
	 viewBox="0 0 300 300" style="enable-background:new 0 0 300 300;" xml:space="preserve">
<style type="text/css">
	.st0{fill:#F37322;}
	.st1{fill:#FFFFFF;}
	.st2{fill:#F1A624;}
	.st3{fill:#DADDDF;}
</style>
<g id="allegiance">
	<polygon class="st0" points="116.4,175.9 63.4,136.9 129.2,136.4 150,74 170.8,136.4 199.6,136.6 228.1,115.8 186,115.5 150,7.3 
		114,115.5 0,116.3 91.7,184 78.8,224.7 107.6,203.7 	"/>
	<polygon class="st1" points="300,116.3 265.2,116.1 230.5,141.4 183.6,175.9 203.5,238.6 150,200.4 130.4,214.4 67.6,260.3 
		57.3,292.7 150,226.4 242.7,292.7 208.3,184 	"/>
	<polygon class="st2" points="78.8,224.7 85.4,219.9 96.6,185.5 97.7,182.1 94.7,179.9 15.3,121.3 114,120.6 117.7,120.5 
		118.8,117.1 150,23.5 181.2,117.1 182.3,120.5 186,120.6 221.1,120.8 228.1,115.8 186,115.5 150,7.3 114,115.5 0,116.3 91.7,184 	
		"/>
	<polygon class="st3" points="300,116.3 265.2,116.1 257.9,121.3 284.7,121.3 205.3,179.9 202.3,182.1 203.4,185.5 233.2,279.6 
		153,222.2 150,220.1 147,222.2 66.8,279.6 74.4,255.3 67.6,260.3 57.3,292.7 150,226.4 242.7,292.7 208.3,184 	"/>
</g>
</svg>
