<?xml version="1.0" encoding="utf-8"?>
<!-- Generator: Adobe Illustrator 21.1.0, SVG Export Plug-In . SVG Version: 6.00 Build 0)  -->
<svg version="1.1" id="logo" xmlns="http://www.w3.org/2000/svg" xmlns:xlink="http://www.w3.org/1999/xlink" x="0px" y="0px"
	 viewBox="0 0 300 300" style="enable-background:new 0 0 300 300;" xml:space="preserve">
<style type="text/css">
	.st0{fill:#FFFFFF;}
</style>
<path id="ghost" class="st0" d="M139.2,60h90.7c5.6,0,10.2-4.6,10.2-10.2V10.2c0-5.6-4.6-10.2-10.2-10.2H119.1
	C86.4,0,59.9,26.5,59.9,59.2v61.5c0,32.7,26.5,59.2,59.2,59.2h60.8v120h0c33.3,0,60.2-27,60.2-60.2V130.4c0-5.7-4.7-10.4-10.4-10.4
	h-90.5c-10.6,0-19.3-8.6-19.3-19.3V79.3C119.9,68.6,128.5,60,139.2,60z"/>
</svg>
