<?xml version="1.0" encoding="utf-8"?>
<!-- Generator: Adobe Illustrator 21.1.0, SVG Export Plug-In . SVG Version: 6.00 Build 0)  -->
<svg version="1.1" id="logo" xmlns="http://www.w3.org/2000/svg" xmlns:xlink="http://www.w3.org/1999/xlink" x="0px" y="0px"
	 viewBox="0 0 300 300" style="enable-background:new 0 0 300 300;" xml:space="preserve">
<style type="text/css">
	.st0{fill:url(#border_1_);}
	.st1{fill:url(#shad_x5F_bot_1_);}
	.st2{opacity:0.5;fill:#161616;}
	.st3{fill:url(#base_4_);}
	.st4{fill:url(#bot_2_);}
	.st5{fill:url(#top_2_);}
	.st6{fill:url(#bot_3_);}
	.st7{fill:url(#top_3_);}
	.st8{fill:url(#mid_x5F_right_1_);}
	.st9{fill:url(#mid_x5F_left_1_);}
	.st10{fill:#494949;}
	.st11{fill:url(#fade_2_);}
	.st12{fill:#4B4B4B;}
	.st13{fill:url(#fade_3_);}
	.st14{fill:url(#base_5_);}
	.st15{fill:url(#g_x5F_shad_1_);}
	.st16{fill:url(#g_x5F_light_1_);}
	.st17{fill:url(#g_x5F_right_1_);}
	.st18{fill:url(#g_x5F_left_1_);}
	.st19{fill:url(#_x32__1_);}
	.st20{fill:url(#g_1_);}
	.st21{fill:url(#SVGID_1_);}
	.st22{fill:url(#SVGID_2_);}
	.st23{fill:#D1D1D1;}
	.st24{fill:url(#SVGID_3_);}
	.st25{fill:url(#SVGID_4_);}
	.st26{fill:url(#SVGID_5_);}
	.st27{fill:#B1B1B1;}
	.st28{fill:#D3D3D3;}
	.st29{fill:url(#SVGID_6_);}
	.st30{fill:#E3E3E3;}
	.st31{fill:url(#SVGID_7_);}
	.st32{fill:#D5D5D5;}
	.st33{fill:url(#SVGID_8_);}
	.st34{fill:url(#SVGID_9_);}
	.st35{fill:url(#SVGID_10_);}
	.st36{fill:#BDBDBD;}
	.st37{fill:url(#SVGID_11_);}
</style>
<g id="G2">
	<g id="frame_1_">
		<linearGradient id="border_1_" gradientUnits="userSpaceOnUse" x1="150" y1="300" x2="150" y2="-9.094947e-13">
			<stop  offset="0" style="stop-color:#161616"/>
			<stop  offset="1" style="stop-color:#2B2B2B"/>
		</linearGradient>
		<path id="border_2_" class="st0" d="M264.2,151.2c0,0-8.8-5.5-16.6-17.5c0,0,0,0,0,0s-5.9-7.8-7.6-15.8l0,0
			c-1.5-4.5-2.7-9.5-3.4-15c0,0,15.8-9.9,26.1-25.7l-18.3-2.5c0,0-14.1-1.7-20.7-4.3c0,0-7.2-2.6-10.1-4.5c3.4-16.6-1.5-30-1.5-30
			C203.4,5.4,181.8,0,181.8,0l-4.7,10.2c-5.5,11-13.3,17-13.3,17c-5.3,4.3-13.8,6.1-13.8,6.1c0,0-8.5-1.8-13.8-6.1
			c0,0-7.8-6-13.3-17L118.2,0c0,0-21.5,5.4-30.2,35.9c0,0-5,13.4-1.5,30c-2.9,1.9-10.1,4.5-10.1,4.5c-6.6,2.6-20.7,4.3-20.7,4.3
			l-18.3,2.5c10.3,15.8,26.1,25.7,26.1,25.7c-0.7,5.5-1.9,10.5-3.4,15l0,0c-1.7,8-7.6,15.8-7.6,15.8s0,0,0,0
			c-7.8,12-16.6,17.5-16.6,17.5l-15.4,11.4L34,184.6c14.3,21.4,29.8,40,44.7,55.6l1.4,1.3c0,0,10.3,10.1,22.4,21l1.1,1
			c0,0,0.5,0.4,1.4,1.2c7,6.2,14.4,12.4,20.7,17.1l0,0c7.6,6,16.2,12.7,24.3,18.3v0c0,0,0,0,0,0c0,0,0,0,0,0v0
			c8.1-5.7,16.7-12.3,24.3-18.3l0,0c6.3-4.6,13.7-10.9,20.7-17.1c0.9-0.7,1.4-1.2,1.4-1.2l1.1-1c12.1-10.9,22.4-21,22.4-21l1.4-1.3
			c14.9-15.6,30.5-34.2,44.7-55.6l13.6-22.1L264.2,151.2z"/>
		<linearGradient id="shad_x5F_bot_1_" gradientUnits="userSpaceOnUse" x1="150" y1="300" x2="150" y2="158.5342">
			<stop  offset="0" style="stop-color:#101010"/>
			<stop  offset="1" style="stop-color:#262626"/>
		</linearGradient>
		<path id="shad_x5F_bot" class="st1" d="M274.1,158.5l-16.7,27.4c-20.4,31.9-59.9,68.2-59.9,68.2c-18.6,18.6-47.5,37.3-47.5,37.3
			s-28.9-18.8-47.5-37.3c0,0-39.5-36.3-59.9-68.2l-16.7-27.4l-5.5,4L34,184.6c14.3,21.4,29.8,40,44.7,55.6l1.4,1.3
			c0,0,10.3,10.1,22.4,21l1.1,1c0,0,0.5,0.4,1.4,1.2c7,6.2,14.4,12.4,20.7,17.1l0,0c7.6,6,16.2,12.7,24.3,18.3v0c0,0,0,0,0,0
			c0,0,0,0,0,0v0c8.1-5.7,16.7-12.3,24.3-18.3l0,0c6.3-4.6,13.7-10.9,20.7-17.1c0.9-0.7,1.4-1.2,1.4-1.2l1.1-1
			c12.1-10.9,22.4-21,22.4-21l1.4-1.3c14.9-15.6,30.5-34.2,44.7-55.6l13.6-22.1L274.1,158.5z"/>
	</g>
	<path id="drop_x5F_shadow" class="st2" d="M188.8,18.5c0,0,13.2,11.2,13.2,31.2c0,0-0.1,15.2-11.2,32.7c0,0-3.4,5.4-6.2,8.6
		l-11.2,13.2l6.8-4.7c0,0,13.3-10,23-26c0,0,10.9,9,38.5,10.6c0,0-5.3,4.6-14.7,8.9l-19,7.7c0,0-41.5,13.9-58,38.1v0c0,0,0,0,0,0
		c0,0,0,0,0,0v0c-16.5-24.2-58-38.1-58-38.1L73,93c-9.4-4.4-14.7-8.9-14.7-8.9c27.6-1.6,38.5-10.6,38.5-10.6c9.7,16,23,26,23,26
		l6.8,4.7L115.3,91c-2.8-3.2-6.2-8.6-6.2-8.6C98,64.9,97.9,49.7,97.9,49.7c0-20,13.2-31.2,13.2-31.2c4.7,8.6,12.7,15.2,12.7,15.2
		c-6.1,6.5-6.5,16.6-6.5,16.6c0,6.3,2.7,14.5,2.7,14.5c7.7-2.8,18.5-11.5,18.5-11.5l11.4-9.5v0l0,0l0,0v0l11.4,9.5
		c0,0,10.8,8.7,18.5,11.5c0,0,2.7-8.2,2.7-14.5c0,0-0.3-10.1-6.5-16.6C176.1,33.6,184.1,27,188.8,18.5 M225.4,100.5
		c0,38.1,28.4,57.8,28.4,57.8l11,8.3l-11.1,16.6c-15.6,24-44.3,52.7-44.3,52.7c-4.6-8.6-16-20.6-16-20.6c1,2,4.6,15.2,4.6,15.2
		c-5.2,5.6-29.1,26.7-29.1,26.7l9.7,7.4c-6.5,6.4-20.7,16-20.7,16l-7.9-5.4l-7.9,5.4c0,0-14.1-9.6-20.7-16l9.7-7.4
		c0,0-23.9-21.1-29.1-26.7c0,0,3.7-13.2,4.6-15.2c0,0-11.3,12-16,20.6c0,0-28.7-28.7-44.3-52.7l-11.1-16.6l11-8.3
		c0,0,28.4-19.7,28.4-57.8l12.4,4.4l0,15.4c0,0-0.4,37.9,6.2,55.7c0,0,15.8,44.2,56.8,66c41-21.8,56.8-66,56.8-66
		c6.7-17.8,6.2-55.7,6.2-55.7l0-15.4L225.4,100.5 M208.9,106.3v9.2c0,39.4-5.9,55.4-5.9,55.4c-14.3,6.3-34.3,9.4-34.3,9.4l-0.5,20.1
		c0,0,5.3-4.9,8.8-11c0,0,2.3-3.6,3.2-5.8l6.3-1.9c0,0,9.8-2.6,13.1-4.2l0.6-0.3c-6.5,17.2-17.6,31-17.6,31
		c-13.3,17.8-30.8,27.1-30.8,27.1v-73.2c0,0,5.3-0.1,13.1-1.6c0,0,6.7-1.3,8.2-1.8l-7.5,17.9c0,0,3.3-4.2,4.5-6l8.9-14
		c6.5-3.1,9.3-6.6,9.3-6.6c5.4-6.4,5.2-16.6,5.2-16.6l-6.6,3.3l5.8-18.9c0,0-8,17.4-12.3,23l-10.4,7.5v5.5c0,0-3.4,1.5-9.9,2.8
		c0,0-5.8,1-8.3,1v-13.8c0,0,8.2-10.3,21.6-19.8c0,0,8.9-6.4,18.4-10.7L208.9,106.3 M92.3,106.8l10.4,4.2c0,0,32.2,13.1,45.5,32.9
		l0.2,13.8c0,0-7.3-0.6-10.1-1.5c0,0-6-1.6-7.4-2.5l-0.5-5.8c0,0-5.1-4.3-10-8.2c0,0-6.1-4.8-11-7.4l1.3,16.9
		c1.1,9.8,2.5,17.1,2.5,17.1c2.7,9.9,7.1,17.8,7.1,17.8c4.2,7,11.3,16.1,11.3,16.1l-0.3-20.3l-11.6-4.4c-3.7-7.5-5.7-23.7-5.7-23.7
		l6.3,2.9c3,1.4,10.5,4,10.5,4c3.8,1.4,17.4,3.6,17.4,3.6l-0.1,73c0,0-12.5-7.3-25.5-21.4c0,0-9.3-10.5-17.2-24.3
		c0,0-10-14.6-11.9-39.6C93.6,150,92.6,127.4,92.3,106.8 M188.4,15.9l-1,1.8c-4.5,8.2-12.2,14.6-12.3,14.7l-1.4,1.1l1.2,1.3
		c5.5,5.8,6,15,6,15.5c0,4.3-1.4,9.7-2.1,12.3c-7.2-3.2-16.3-10.5-16.4-10.6l-10.7-9v-2.8l-1.7,1.4l-1.6-1.3l0,2.7l-10.8,9
		c-0.1,0.1-9.2,7.3-16.4,10.5c-0.8-2.7-2.1-8-2.1-12.3c0-0.5,0.5-9.7,6-15.5l1.2-1.3l-1.4-1.1c-0.1-0.1-7.8-6.5-12.3-14.7l-1-1.8
		l-1.5,1.3c-0.6,0.5-13.8,11.9-13.8,32.5c0,0.6,0.2,15.9,11.5,33.6c0.1,0.2,3.5,5.6,6.3,8.8l1.4,1.6c-4.7-4.4-11.7-11.7-17.4-21.1
		l-1-1.6l-1.5,1.2c-0.1,0.1-11,8.7-37.5,10.2l-4,0.2l3.1,2.6c0.2,0.2,5.6,4.8,15.1,9.2l0,0l0,0l19,7.7l0,0l0,0
		c0.4,0.1,40.7,13.8,56.9,37v2c-14-19.1-43.8-31.3-45.1-31.9l-10.4-4.2l-2.3-0.9l0,2.4c0.3,20.4,1.3,43,1.3,43.2l0,0l0,0
		c1.8,24.5,11.3,39.1,12.1,40.3c7.8,13.8,17.3,24.5,17.4,24.6c13,14.2,25.4,21.4,25.9,21.7l2.4,1.4l0-2.8l0.1-73l0-1.4l-1.4-0.2
		c-0.1,0-13.5-2.2-17.1-3.5c-0.1,0-7.5-2.6-10.4-3.9l-6.3-2.9l-2.4-1.1c0-0.1,0-0.2,0-0.3l-1.1-13.8c4.1,2.5,8.1,5.7,8.1,5.7
		c4,3.2,8.1,6.6,9.5,7.8l0.4,5.1l0.1,0.8l0.6,0.4c1.5,1,6.4,2.3,7.9,2.7c3,0.9,10.1,1.5,10.4,1.5l1.8,0.1l0-1.8l-0.2-13.8l0-0.5
		l-0.3-0.4c-0.1-0.1-0.2-0.2-0.2-0.3l0.7-1l0.7,1c-0.1,0.1-0.1,0.1-0.1,0.2l-0.4,0.4v0.6v13.8v1.6h1.6c2.6,0,8.3-1,8.6-1
		c6.6-1.3,10.1-2.8,10.2-2.9l1-0.4v-1.1v-4.7l9.7-7l0.2-0.1l0.1-0.2c1.1-1.5,2.5-3.6,3.9-6.1l-0.2,0.5l-1.1,3.6l3.4-1.7l4.1-2
		c-0.3,3.3-1.4,8.9-4.7,12.9c0,0-2.7,3.3-8.8,6.2l-0.4,0.2l-0.3,0.4l-4.5,7.1l1.4-3.4l1.4-3.4l-3.5,1.3c-1,0.4-5.4,1.3-7.9,1.8
		c-7.5,1.5-12.7,1.6-12.8,1.6l-1.6,0l0,1.6v73.2v2.7l2.4-1.3c0.7-0.4,18-9.7,31.4-27.6c0.7-0.8,11.4-14.3,17.8-31.4l1.6-4.2
		l-3.9,2.2l-0.5,0.3c-3.1,1.6-12.6,4.1-12.7,4.1l0,0l0,0l-6.3,1.9l-0.7,0.2l-0.3,0.7c-0.8,2-3,5.5-3.1,5.5l0,0l0,0
		c-1.7,3-3.9,5.7-5.7,7.6l0.4-14.6c4.8-0.8,21-3.8,33.4-9.3l0.6-0.3l0.2-0.6c0.2-0.7,6-16.8,6-56v-9.2v-2.4l-2.3,0.9l-17.1,7.1l0,0
		l0,0c-9.5,4.3-18.3,10.6-18.6,10.8c-10.8,7.6-18.2,15.7-20.8,18.8l0-2.2c16.2-23.2,56.5-36.9,56.9-37l0,0l0,0l19-7.7l0,0l0,0
		c9.5-4.4,14.9-9,15.1-9.2l3.1-2.6l-4-0.2c-26.7-1.6-37.4-10.2-37.5-10.2l-1.5-1.2l-1,1.6c-5.7,9.4-12.7,16.8-17.4,21.1l1.4-1.7
		c2.8-3.2,6.2-8.5,6.3-8.8c11.2-17.7,11.5-33,11.5-33.6c0-20.5-13.2-32-13.8-32.5L188.4,15.9L188.4,15.9z M114.8,166
		c0-0.1-0.1-0.6-0.2-1.2c0.2,0.9,0.4,1.8,0.6,2.7C115,166.9,114.9,166.5,114.8,166L114.8,166z M129.9,195.3c-2.4-3.3-5.8-8-8.2-12
		c0,0-1.4-2.5-3-6.4l0.5,0.2l10.6,4L129.9,195.3L129.9,195.3z M227,98.1l-2.2,0.8l-12.4,4.4l-1.1,0.4l0,1.1l0,15.4
		c0,0.4,0.4,37.8-6.1,55.1c0,0.1-4,11.1-12.9,24.6c-8.1,12.2-21.9,29.1-42.3,40.1c-20.4-11.1-34.3-27.9-42.3-40.1
		c-8.9-13.5-12.9-24.5-12.9-24.6c-6.5-17.4-6.1-54.8-6.1-55.1l0-15.4l0-1.1l-1.1-0.4l-12.4-4.4L73,98.1v2.3
		c0,36.8-27.4,56.2-27.7,56.4l0,0l0,0l-11,8.3l-1.2,0.9l0.9,1.3L45,184.1c15.5,23.8,44.2,52.6,44.5,52.9l1.5,1.5l1-1.9
		c2.5-4.6,7-10.3,10.6-14.5c-1.1,3.6-2.1,7.1-2.3,7.9l-0.2,0.9l0.6,0.7c4.5,4.8,22.4,20.7,27.8,25.5l-8.2,6.2l-1.5,1.1l1.3,1.3
		c6.6,6.5,20.3,15.8,20.9,16.2l0.9,0.6l0.9-0.6l7-4.8l7,4.8l0.9,0.6l0.9-0.6c0.6-0.4,14.3-9.7,20.9-16.2l1.3-1.3l-1.5-1.1l-8.2-6.2
		c5.4-4.7,23.2-20.7,27.8-25.5l0.6-0.7l-0.2-0.9c-0.2-0.7-1.2-4.3-2.3-7.9c3.6,4.2,8.1,9.9,10.6,14.5l1,1.9l1.5-1.5
		c0.3-0.3,29-29.1,44.5-52.9l11.1-16.6l0.9-1.3l-1.2-0.9l-11-8.3l0,0l0,0c-0.1,0-7-4.9-13.9-14.3c-6.3-8.6-13.8-22.9-13.8-42.1V98.1
		L227,98.1z"/>
	<g id="head">
		<g id="sides_2_">
			<linearGradient id="base_4_" gradientUnits="userSpaceOnUse" x1="150" y1="100.4537" x2="150" y2="280.5354">
				<stop  offset="0" style="stop-color:#8B8B8B"/>
				<stop  offset="1" style="stop-color:#4F4F4F"/>
			</linearGradient>
			<path id="base_3_" class="st3" d="M253.8,158.2c0,0-28.4-19.7-28.4-57.8l-12.4,4.4l0,15.4c0,0,0.4,37.9-6.2,55.7
				c0,0-15.8,44.2-56.8,66c-41-21.8-56.8-66-56.8-66c-6.7-17.8-6.2-55.7-6.2-55.7l0-15.4l-12.4-4.4c0,38.1-28.4,57.8-28.4,57.8
				l-11,8.3l11.1,16.6c15.6,24,44.3,52.7,44.3,52.7c4.6-8.6,16-20.6,16-20.6c-1,2-4.6,15.2-4.6,15.2c5.2,5.6,29.1,26.7,29.1,26.7
				l-9.7,7.4c6.5,6.4,20.7,16,20.7,16l7.9-5.4l7.9,5.4c0,0,14.1-9.6,20.7-16l-9.7-7.4c0,0,23.9-21.1,29.1-26.7
				c0,0-3.7-13.2-4.6-15.2c0,0,11.3,12,16,20.6c0,0,28.7-28.7,44.3-52.7l11.1-16.6L253.8,158.2z"/>
			<g id="shad_x5F_right">
				
					<linearGradient id="bot_2_" gradientUnits="userSpaceOnUse" x1="-808.2553" y1="166.5381" x2="-808.2553" y2="235.8553" gradientTransform="matrix(-1 0 0 1 -573.7354 0)">
					<stop  offset="0" style="stop-color:#6D6D6D"/>
					<stop  offset="0.7" style="stop-color:#6D6D6D;stop-opacity:0"/>
				</linearGradient>
				<path id="bot" class="st4" d="M252.7,168.6l12-2l-11.1,16.6c-15.6,24-44.3,52.7-44.3,52.7c-1.3-2.3-3-5-4.9-7.5
					C225,210.7,252.7,168.6,252.7,168.6z"/>
				
					<linearGradient id="top_2_" gradientUnits="userSpaceOnUse" x1="-815.1691" y1="168.5799" x2="-815.1691" y2="100.4537" gradientTransform="matrix(-1 0 0 1 -573.7354 0)">
					<stop  offset="0" style="stop-color:#6D6D6D"/>
					<stop  offset="0.7" style="stop-color:#6D6D6D;stop-opacity:0"/>
				</linearGradient>
				<path id="top" class="st5" d="M218.2,110.1V103v0l7.2-2.6c0,38.1,28.4,57.8,28.4,57.8l11,8.3l-12,2
					C252.7,168.6,218.2,146.1,218.2,110.1z"/>
			</g>
			<g id="shad_x5F_left">
				<linearGradient id="bot_3_" gradientUnits="userSpaceOnUse" x1="65.4456" y1="166.5381" x2="65.4456" y2="235.8553">
					<stop  offset="0" style="stop-color:#8A8A8A"/>
					<stop  offset="0.7" style="stop-color:#8A8A8A;stop-opacity:0"/>
				</linearGradient>
				<path id="bot_1_" class="st6" d="M47.2,168.6l-12-2l11.1,16.6c15.6,24,44.3,52.7,44.3,52.7c1.3-2.3,3-5,4.9-7.5
					C75,210.7,47.2,168.6,47.2,168.6z"/>
				<linearGradient id="top_3_" gradientUnits="userSpaceOnUse" x1="58.5319" y1="168.5799" x2="58.5319" y2="100.4537">
					<stop  offset="0" style="stop-color:#8A8A8A"/>
					<stop  offset="0.7" style="stop-color:#8A8A8A;stop-opacity:0"/>
				</linearGradient>
				<path id="top_1_" class="st7" d="M81.8,110.1V103v0l-7.2-2.6c0,38.1-28.4,57.8-28.4,57.8l-11,8.3l12,2
					C47.2,168.6,81.8,146.1,81.8,110.1z"/>
			</g>
			<g id="inner">
				<linearGradient id="mid_x5F_right_1_" gradientUnits="userSpaceOnUse" x1="184.0725" y1="248.3917" x2="184.0725" y2="103.046">
					<stop  offset="0" style="stop-color:#565656;stop-opacity:0"/>
					<stop  offset="0.5" style="stop-color:#565656"/>
					<stop  offset="1" style="stop-color:#565656;stop-opacity:0"/>
				</linearGradient>
				<path id="mid_x5F_right" class="st8" d="M213,104.9l0,15.4c0,0,0.4,37.9-6.2,55.7c0,0-15.8,44.2-56.8,66v6.4
					c7.9-2.9,12.2-6.4,12.2-6.4c20.7-16.9,31-32.4,31-32.4c17.6-23,22.1-49.1,22.1-49.1c1.8-11.4,2.8-50.4,2.8-50.4V103L213,104.9z"
					/>
				<linearGradient id="mid_x5F_left_1_" gradientUnits="userSpaceOnUse" x1="115.8781" y1="248.3917" x2="115.8781" y2="103.0326">
					<stop  offset="0" style="stop-color:#565656;stop-opacity:0"/>
					<stop  offset="0.5" style="stop-color:#565656"/>
					<stop  offset="1" style="stop-color:#565656;stop-opacity:0"/>
				</linearGradient>
				<path id="mid_x5F_left" class="st9" d="M81.8,110.1c0,0,1,39,2.8,50.4c0,0,4.5,26.1,22.1,49.1c0,0,10.3,15.4,31,32.4
					c0,0,4.3,3.5,12.2,6.4V242c-40.9-21.8-56.7-66-56.7-66c-6.7-17.8-6.2-55.7-6.2-55.7l0-15.4l-5.2-1.8l0,0V110.1z"/>
			</g>
			<g id="shad_x5F_bot_x5F_right">
				<path id="base_1_" class="st10" d="M170,264.7c-1.3,1.6-12.5,9.7-12.5,9.7l-7.5-5.3c0,0.3,0,2.3,0,4.3c0,0.6,0,1.2,0,1.8l0,0
					l7.9,5.4c0,0,14.1-9.6,20.7-16l-9.7-7.4l-8,0.7L170,264.7z"/>
				<linearGradient id="fade_2_" gradientUnits="userSpaceOnUse" x1="168.8156" y1="262.455" x2="192.2354" y2="221.8908">
					<stop  offset="0" style="stop-color:#494949"/>
					<stop  offset="0.7" style="stop-color:#494949;stop-opacity:0"/>
				</linearGradient>
				<path id="fade" class="st11" d="M198,230.4c0,0-0.8-2.9-1.8-6.3c-6.2,10.2-35.4,33.7-35.4,33.7l8-0.7
					C168.8,257.1,192.7,236,198,230.4z"/>
			</g>
			<g id="shad_x5F_bot_x5F_left">
				<path id="base_2_" class="st12" d="M130,264.7c1.3,1.6,12.5,9.7,12.5,9.7l7.5-5.3c0,0.3,0,2.3,0,4.3c0,0.6,0,1.2,0,1.8l0,0
					l-7.9,5.4c0,0-14.1-9.6-20.7-16l9.7-7.4l8,0.7L130,264.7z"/>
				
					<linearGradient id="fade_3_" gradientUnits="userSpaceOnUse" x1="-439.1135" y1="262.455" x2="-415.6938" y2="221.8908" gradientTransform="matrix(-1 0 0 1 -307.9539 0)">
					<stop  offset="0" style="stop-color:#4B4B4B"/>
					<stop  offset="0.7" style="stop-color:#4B4B4B;stop-opacity:0"/>
				</linearGradient>
				<path id="fade_1_" class="st13" d="M102,230.4c0,0,0.8-2.9,1.8-6.3c6.2,10.2,35.4,33.7,35.4,33.7l-8-0.7
					C131.1,257.1,107.2,236,102,230.4z"/>
			</g>
		</g>
		<g id="helmet_3_">
			<linearGradient id="base_5_" gradientUnits="userSpaceOnUse" x1="150" y1="18.4608" x2="150" y2="138.7704">
				<stop  offset="0" style="stop-color:#ACACAC"/>
				<stop  offset="1" style="stop-color:#797979"/>
			</linearGradient>
			<path id="base" class="st14" d="M203.3,73.4c-9.7,16-23,26-23,26l-6.8,4.7L184.7,91c2.8-3.2,6.2-8.6,6.2-8.6
				c11.1-17.6,11.2-32.7,11.2-32.7c0-20-13.2-31.2-13.2-31.2c-4.7,8.6-12.7,15.2-12.7,15.2c6.1,6.5,6.5,16.6,6.5,16.6
				c0,6.3-2.7,14.5-2.7,14.5c-7.7-2.8-18.5-11.5-18.5-11.5L150,43.8v0l0,0l0,0v0l-11.4,9.5c0,0-10.8,8.7-18.5,11.5
				c0,0-2.7-8.2-2.7-14.5c0,0,0.3-10.1,6.5-16.6c0,0-8-6.6-12.7-15.2c0,0-13.2,11.2-13.2,31.2c0,0,0.1,15.2,11.2,32.7
				c0,0,3.4,5.4,6.2,8.6l11.2,13.2l-6.8-4.7c0,0-13.3-10-23-26c0,0-10.9,9-38.5,10.6c0,0,5.3,4.6,14.7,8.9l19,7.7
				c0,0,41.5,13.9,58,38.1v0c0,0,0,0,0,0c0,0,0,0,0,0v0c16.5-24.2,58-38.1,58-38.1l19-7.7c9.4-4.4,14.7-8.9,14.7-8.9
				C214.2,82.4,203.3,73.4,203.3,73.4z"/>
			<linearGradient id="g_x5F_shad_1_" gradientUnits="userSpaceOnUse" x1="241.7742" y1="110.9043" x2="150.0021" y2="110.9043">
				<stop  offset="0.2" style="stop-color:#929292"/>
				<stop  offset="1" style="stop-color:#575757"/>
			</linearGradient>
			<path id="g_x5F_shad" class="st15" d="M172.6,110.9c-13.2,8.2-22.6,21-22.6,21v6.8c16.5-24.2,58-38.1,58-38.1l19-7.7
				c9.4-4.4,14.7-8.9,14.7-8.9c-3.7-0.2-7-0.6-10.1-1c-7.4,5.9-26.7,11.9-26.7,11.9C191.7,99.2,172.6,110.9,172.6,110.9z"/>
			<linearGradient id="g_x5F_light_1_" gradientUnits="userSpaceOnUse" x1="150.0021" y1="110.907" x2="58.2257" y2="110.907">
				<stop  offset="0" style="stop-color:#878787"/>
				<stop  offset="0.5" style="stop-color:#878787"/>
			</linearGradient>
			<path id="g_x5F_light" class="st16" d="M73,93l19,7.7c0,0,41.5,13.9,58,38.1v0c0,0,0,0,0,0c0,0,0,0,0,0v0v-6.8
				c0,0-9.4-12.9-22.6-21c0,0-19.1-11.7-32.3-16c0,0-19.3-6-26.7-11.9c-3.1,0.4-6.5,0.8-10.1,1C58.2,84.1,63.6,88.6,73,93z"/>
			<linearGradient id="g_x5F_right_1_" gradientUnits="userSpaceOnUse" x1="150.0021" y1="58.5572" x2="179.8625" y2="58.5572">
				<stop  offset="0" style="stop-color:#A8A8A8"/>
				<stop  offset="1" style="stop-color:#9B9B9B"/>
			</linearGradient>
			<path id="g_x5F_right" class="st17" d="M161.4,53.3L150,43.8v11.5c0,0,21.1,17.4,28.7,18l1.1-8.6l0,0c0,0,0,0,0,0
				C172.2,61.9,161.4,53.3,161.4,53.3z"/>
			<linearGradient id="g_x5F_left_1_" gradientUnits="userSpaceOnUse" x1="150.0021" y1="58.5555" x2="120.1416" y2="58.5555">
				<stop  offset="0" style="stop-color:#A8A8A8"/>
				<stop  offset="1" style="stop-color:#9B9B9B"/>
			</linearGradient>
			<path id="g_x5F_left" class="st18" d="M150,55.3V43.8v0l0,0l0,0v0l-11.4,9.5c0,0-10.8,8.7-18.5,11.5l1.1,8.6
				C128.9,72.7,150,55.3,150,55.3z"/>
		</g>
	</g>
	<g id="g2">
		<g id="text">
			<linearGradient id="_x32__1_" gradientUnits="userSpaceOnUse" x1="180.3858" y1="106.2812" x2="180.3858" y2="235.324">
				<stop  offset="0" style="stop-color:#D2D2D2"/>
				<stop  offset="1" style="stop-color:#B4B4B4"/>
			</linearGradient>
			<path id="_x32__3_" class="st19" d="M191.8,113.4c-9.5,4.3-18.4,10.7-18.4,10.7c-13.4,9.5-21.6,19.8-21.6,19.8v13.8
				c2.5,0,8.3-1,8.3-1c6.4-1.3,9.9-2.8,9.9-2.8v-5.5l10.4-7.5c4.4-5.6,12.3-23,12.3-23l-5.8,18.9l6.6-3.3c0,0,0.1,10.2-5.2,16.6
				c0,0-2.8,3.5-9.3,6.6l-8.9,14c-1.2,1.8-4.5,6-4.5,6l7.5-17.9c-1.5,0.5-8.2,1.8-8.2,1.8c-7.8,1.5-13.1,1.6-13.1,1.6v73.2
				c0,0,17.6-9.4,30.8-27.1c0,0,11.1-13.8,17.6-31l-0.6,0.3c-3.3,1.7-13.1,4.2-13.1,4.2l-6.3,1.9c-0.9,2.1-3.2,5.8-3.2,5.8
				c-3.5,6.1-8.8,11-8.8,11l0.5-20.1c0,0,20-3,34.3-9.4c0,0,5.9-16,5.9-55.4v-9.2L191.8,113.4z"/>
			<linearGradient id="g_1_" gradientUnits="userSpaceOnUse" x1="120.3287" y1="106.8172" x2="120.3287" y2="235.324">
				<stop  offset="0" style="stop-color:#D2D2D2"/>
				<stop  offset="1" style="stop-color:#B4B4B4"/>
			</linearGradient>
			<path id="g_3_" class="st20" d="M130.4,147.9l0.5,5.8c1.4,0.9,7.4,2.5,7.4,2.5c2.9,0.9,10.1,1.5,10.1,1.5l-0.2-13.8
				c-13.3-19.8-45.5-32.9-45.5-32.9l-10.4-4.2c0.3,20.6,1.3,43.2,1.3,43.2c1.8,24.9,11.9,39.6,11.9,39.6
				c7.9,13.9,17.2,24.3,17.2,24.3c13,14.2,25.5,21.4,25.5,21.4l0.1-73c0,0-13.6-2.2-17.4-3.6c0,0-7.5-2.6-10.5-4l-6.3-2.9
				c0,0,1.9,16.3,5.7,23.7l11.6,4.4l0.3,20.3c0,0-7.1-9.1-11.3-16.1c0,0-4.4-7.9-7.1-17.8c0,0-1.4-7.3-2.5-17.1l-1.3-16.9
				c4.9,2.6,11,7.4,11,7.4C125.3,143.6,130.4,147.9,130.4,147.9z"/>
		</g>
		<g id="shading">
			<g id="_x32__4_">
				<linearGradient id="SVGID_1_" gradientUnits="userSpaceOnUse" x1="181.6704" y1="131.7605" x2="181.6704" y2="176.5937">
					<stop  offset="0" style="stop-color:#E0E0E0;stop-opacity:0"/>
					<stop  offset="1" style="stop-color:#FFFFFF"/>
				</linearGradient>
				<path class="st21" d="M197.7,131.8l-4.2,1.6c0,0,0.1,10.2-5.2,16.6c0,0-2.8,3.5-9.3,6.6l-8.9,14c-1.2,1.8-4.5,6-4.5,6l15.2-18.2
					C180.8,158.4,197.8,155.9,197.7,131.8z"/>
				<linearGradient id="SVGID_2_" gradientUnits="userSpaceOnUse" x1="168.718" y1="175.5558" x2="203.0363" y2="175.5558">
					<stop  offset="0" style="stop-color:#9B9B9B;stop-opacity:0"/>
					<stop  offset="1" style="stop-color:#9B9B9B"/>
				</linearGradient>
				<path class="st22" d="M168.7,180.3c0,0,20-3,34.3-9.4l-5.1,0C191.3,174.2,168.7,180.3,168.7,180.3z"/>
				<path class="st23" d="M182.9,186.5c0,0,7.7-1.5,9.4-2.9l7.9-6.4l-0.6,0.3c-3.3,1.7-13.1,4.2-13.1,4.2l-6.3,1.9
					c-0.9,2.1-3.2,5.8-3.2,5.8c-3.5,6.1-8.8,11-8.8,11v4.5C168.2,204.9,179.5,195.7,182.9,186.5z"/>
				<linearGradient id="SVGID_3_" gradientUnits="userSpaceOnUse" x1="173.061" y1="161.6465" x2="151.8396" y2="161.6465">
					<stop  offset="0" style="stop-color:#E0E0E0;stop-opacity:0"/>
					<stop  offset="1" style="stop-color:#EAEAEA"/>
				</linearGradient>
				<path class="st24" d="M171.9,161.6l1.2-2.8c-1.5,0.5-8.2,1.8-8.2,1.8c-7.8,1.5-13.1,1.6-13.1,1.6l5.3,2.4
					C157.1,164.6,167,162.8,171.9,161.6z"/>
				<linearGradient id="SVGID_4_" gradientUnits="userSpaceOnUse" x1="203.4573" y1="115.0103" x2="203.4573" y2="170.8768">
					<stop  offset="0" style="stop-color:#9B9B9B;stop-opacity:0"/>
					<stop  offset="1" style="stop-color:#9B9B9B"/>
				</linearGradient>
				<path class="st25" d="M208.9,115l-5.7,2.5c1.1,32.4-5.2,53.3-5.2,53.3l5.1,0c0,0,5.9-16,5.9-55.4V115z"/>
				<linearGradient id="SVGID_5_" gradientUnits="userSpaceOnUse" x1="154.4938" y1="235.324" x2="154.4938" y2="162.1739">
					<stop  offset="0" style="stop-color:#DEDEDE;stop-opacity:0"/>
					<stop  offset="1" style="stop-color:#DFDFDF"/>
				</linearGradient>
				<polygon class="st26" points="157.1,164.6 151.8,162.2 151.8,235.3 156.9,225.7 				"/>
				<path class="st27" d="M157.2,153.5l-5.4,4.1c2.5,0,8.3-1,8.3-1c6.4-1.3,9.9-2.8,9.9-2.8l-3-2.4
					C167,151.3,159.6,153.2,157.2,153.5z"/>
				<polygon class="st28" points="157.2,145.3 151.8,143.8 151.8,157.6 157.2,153.5 				"/>
				<linearGradient id="SVGID_6_" gradientUnits="userSpaceOnUse" x1="176.047" y1="235.324" x2="176.047" y2="177.2062">
					<stop  offset="0" style="stop-color:#939393;stop-opacity:0"/>
					<stop  offset="0.4" style="stop-color:#939393"/>
					<stop  offset="0.7" style="stop-color:#939393"/>
					<stop  offset="1" style="stop-color:#A1A3A6"/>
				</linearGradient>
				<path class="st29" d="M156.9,225.7l-5,9.6c0,0,17.6-9.4,30.8-27.1c0,0,11.1-13.8,17.6-31l-7.9,6.4
					C178.2,214,156.9,225.7,156.9,225.7z"/>
				<path class="st30" d="M208.9,115v-8.7l-17.1,7.1c-9.5,4.3-18.4,10.7-18.4,10.7c-13.4,9.5-21.6,19.8-21.6,19.8l5.3,1.5
					c0,0,13-13.2,33.3-22.7c1.4-2.8,2.2-4.8,2.2-4.8l-1.3,4.3c3.7-1.7,7.7-3.3,11.8-4.6L208.9,115z"/>
			</g>
			<g id="G">
				<linearGradient id="SVGID_7_" gradientUnits="userSpaceOnUse" x1="145.7689" y1="235.324" x2="145.7689" y2="162.2889">
					<stop  offset="0" style="stop-color:#DEDEDE;stop-opacity:0"/>
					<stop  offset="1" style="stop-color:#DFDFDF"/>
				</linearGradient>
				<polygon class="st31" points="143.3,225.5 148.1,235.3 148.3,162.3 143.3,164.4 				"/>
				<path class="st27" d="M133.3,151.6l-2.4,2.1c1.4,0.9,7.4,2.5,7.4,2.5c2.9,0.9,10.1,1.5,10.1,1.5l-5.1-3.5
					C143.3,154.1,136.6,152.7,133.3,151.6z"/>
				<polygon class="st32" points="143.3,154.1 148.4,157.6 148.2,143.9 143.4,145.3 				"/>
				<linearGradient id="SVGID_8_" gradientUnits="userSpaceOnUse" x1="92.2888" y1="126.0498" x2="148.1645" y2="126.0498">
					<stop  offset="0" style="stop-color:#E3E3E3"/>
					<stop  offset="0.5" style="stop-color:#D5D5D5"/>
				</linearGradient>
				<path class="st33" d="M102.7,111l-10.4-4.2l5.6,11.3c29.2,9.7,45.4,27.2,45.4,27.2l4.8-1.4C134.9,124.1,102.7,111,102.7,111z"/>
				<linearGradient id="SVGID_9_" gradientUnits="userSpaceOnUse" x1="120.215" y1="106.8172" x2="120.215" y2="235.324">
					<stop  offset="0" style="stop-color:#939393;stop-opacity:0"/>
					<stop  offset="0.4" style="stop-color:#939393"/>
					<stop  offset="0.7" style="stop-color:#939393"/>
					<stop  offset="1" style="stop-color:#A1A3A6"/>
				</linearGradient>
				<path class="st34" d="M143.3,225.5c0,0-17.8-10.5-34.6-39.4c0,0-10.1-18.2-10.1-42.7l-0.6-25.2l-5.6-11.3c0,1.5,0,2.9,0.1,4.4
					c0.3,19.3,1.2,38.8,1.2,38.8c1.8,24.9,11.9,39.6,11.9,39.6c7.9,13.9,17.2,24.3,17.2,24.3c13,14.2,25.5,21.4,25.5,21.4
					L143.3,225.5z"/>
				<linearGradient id="SVGID_10_" gradientUnits="userSpaceOnUse" x1="118.2813" y1="159.1199" x2="148.2822" y2="159.1199">
					<stop  offset="0" style="stop-color:#E0E0E0;stop-opacity:0"/>
					<stop  offset="1" style="stop-color:#EAEAEA"/>
				</linearGradient>
				<path class="st35" d="M120.3,154.7l-2-0.9c0.1,1.1,0.3,2.6,0.5,4.2c0,0,0,0,0,0c8.4,3.4,24.5,6.4,24.5,6.4l5-2.1
					c0,0-13.6-2.2-17.4-3.6C130.9,158.7,123.3,156.2,120.3,154.7z"/>
				<path class="st36" d="M122.6,173.9c-2-5.1-3.1-11.3-3.8-15.9c0,0,0,0,0,0c-0.2-1.7-0.4-3.1-0.5-4.2l-4.3-1.9
					c0,0,1.9,16.3,5.7,23.7l11.6,4.4l2.6-2C132.9,177.7,122.6,173.9,122.6,173.9z"/>
				<linearGradient id="SVGID_11_" gradientUnits="userSpaceOnUse" x1="118.6015" y1="205.8417" x2="118.6015" y2="129.9144">
					<stop  offset="0" style="stop-color:#DCDCDC;stop-opacity:0"/>
					<stop  offset="1" style="stop-color:#DCDCDC;stop-opacity:0.5766"/>
				</linearGradient>
				<path class="st37" d="M113.7,179.1c0,0,9.5,18.1,18.4,26.7l-0.5-5.6c0,0-7.1-9.1-11.3-16.1c0,0-4.4-7.9-7.1-17.8
					c0,0-1.4-7.3-2.5-17.1l-1.3-16.9l-4.2-2.3C105.1,129.9,105.9,161.4,113.7,179.1z"/>
			</g>
		</g>
	</g>
</g>
</svg>
